<svg xmlns="http://www.w3.org/2000/svg" width="1002.25" height="644.711" viewBox="0 0 1002.25 644.711"><g transform="translate(-888.75 -112.289)"><g transform="translate(1133.265 193)"><g transform="translate(-15.265 0)"><rect width="773" height="525" rx="5.96" fill="#053968"/><rect width="747.233" height="463.895" rx="2.4" transform="translate(10.803 43.751)" fill="#fff"/><rect width="747.233" height="34.723" rx="3.989" transform="translate(10.803 6.25)" fill="#0a5fa5"/><ellipse cx="8.333" cy="8.333" rx="8.333" ry="8.333" transform="translate(26.081 14.584)" fill="#fff"/><ellipse cx="8.333" cy="8.333" rx="8.333" ry="8.333" transform="translate(52.47 14.584)" fill="#fff"/><ellipse cx="8.333" cy="8.333" rx="8.333" ry="8.333" transform="translate(78.86 14.584)" fill="#fff"/><rect width="179.169" height="179.169" transform="translate(230.251 54.862)" fill="#0a5fa5"/><path d="M22.187,0H88.926a22.187,22.187,0,0,1,22.187,22.187V65.433a0,0,0,0,1,0,0H0a0,0,0,0,1,0,0V22.187A22.187,22.187,0,0,1,22.187,0Z" transform="translate(263.585 149.462)" fill="#fff"/><ellipse cx="36.42" cy="36.42" rx="36.42" ry="36.42" transform="translate(282.103 72.918)" fill="#fff"/><rect width="47.223" height="11.111" transform="translate(478.865 15.972)" fill="#fff"/><rect width="47.223" height="11.111" transform="translate(545.533 15.972)" fill="#fff"/><rect width="47.223" height="11.111" transform="translate(612.201 15.972)" fill="#fff"/><rect width="47.223" height="11.111" transform="translate(678.868 15.972)" fill="#fff"/><rect width="327.782" height="13.889" transform="translate(416.364 252.087)" fill="#0a5fa5"/><g transform="translate(504.213 299.31)"><path d="M479.472,583.716l-10.27-4.472c.122-1.264.189-2.543.189-3.839a39.616,39.616,0,0,0-.775-7.8l9.638-5.557a1.718,1.718,0,0,0,.742-2.117l-2.478-6.315a1.721,1.721,0,0,0-1.985-1.047l-10.8,2.472a39.683,39.683,0,0,0-7.484-9.032l4.435-10.147a1.721,1.721,0,0,0-.661-2.146l-5.743-3.608a1.72,1.72,0,0,0-2.219.336l-7.231,8.415a39.251,39.251,0,0,0-8.41-2.382l-1.651-11.015a1.72,1.72,0,0,0-1.7-1.464h-6.783a1.719,1.719,0,0,0-1.7,1.464l-1.665,11.106a39.154,39.154,0,0,0-10.946,3.689l-8-8.011a1.719,1.719,0,0,0-2.238-.169l-5.458,4.029a1.72,1.72,0,0,0-.5,2.188l5.358,10.121a39.527,39.527,0,0,0-6.5,9.3l-11.417-1.729a1.72,1.72,0,0,0-1.9,1.194l-2,6.482a1.72,1.72,0,0,0,.9,2.056l10.511,5.053a38.94,38.94,0,0,0,.269,11.168l-10.375,5.474a1.721,1.721,0,0,0-.821,2.089l2.242,6.4a1.718,1.718,0,0,0,1.943,1.121l11.578-2.2a39.659,39.659,0,0,0,6.76,8.782L397.2,614.244a1.719,1.719,0,0,0,.581,2.168l5.6,3.821a1.722,1.722,0,0,0,2.231-.251l8-8.636a39.239,39.239,0,0,0,10.677,3.121l2.172,11.521a1.721,1.721,0,0,0,1.754,1.4l6.778-.254a1.718,1.718,0,0,0,1.644-1.526l1.293-11.552a39.152,39.152,0,0,0,10.6-3.847l8.449,7.849a1.719,1.719,0,0,0,2.243.085l5.3-4.229a1.72,1.72,0,0,0,.417-2.206l-5.715-9.881a39.5,39.5,0,0,0,6.368-9.546l11.232,1.272a1.719,1.719,0,0,0,1.854-1.262l1.756-6.553A1.718,1.718,0,0,0,479.472,583.716Zm-49.548,17.025A25.337,25.337,0,1,1,455.261,575.4,25.337,25.337,0,0,1,429.924,600.741Z" transform="translate(-379.25 -524)" fill="#0a5fa5"/><path d="M516.946,621.227l-7.257-5.419c.331-.972.619-1.968.86-2.987a32.09,32.09,0,0,0,.833-6.282l8.615-2.59a1.389,1.389,0,0,0,.975-1.529l-.782-5.429a1.391,1.391,0,0,0-1.368-1.193l-8.957-.051a32.044,32.044,0,0,0-4.22-8.494l5.37-7.168a1.39,1.39,0,0,0-.124-1.81l-3.853-3.9a1.391,1.391,0,0,0-1.81-.147l-7.249,5.288a31.629,31.629,0,0,0-6.179-3.431l.738-8.978a1.388,1.388,0,0,0-1.067-1.467l-5.34-1.256a1.39,1.39,0,0,0-1.61.837l-3.367,8.433a31.675,31.675,0,0,0-9.3.878l-4.815-7.786a1.39,1.39,0,0,0-1.731-.547l-5.042,2.161a1.392,1.392,0,0,0-.8,1.631l2.346,8.958a31.959,31.959,0,0,0-6.838,6.122l-8.667-3.474a1.39,1.39,0,0,0-1.718.587l-2.772,4.732a1.389,1.389,0,0,0,.326,1.785l7.339,5.924a31.464,31.464,0,0,0-1.854,8.84l-9.181,2.39a1.388,1.388,0,0,0-1.032,1.492L438,612.8a1.39,1.39,0,0,0,1.322,1.243l9.521.411a32.024,32.024,0,0,0,3.7,8.165l-6,7.42a1.39,1.39,0,0,0,.056,1.814l3.7,4.044a1.391,1.391,0,0,0,1.8.214l7.9-5.317a31.658,31.658,0,0,0,7.826,4.432L467.4,644.7a1.391,1.391,0,0,0,1.122,1.426l5.384,1.054a1.389,1.389,0,0,0,1.576-.9l3.156-8.854a31.62,31.62,0,0,0,9.059-1.067l5.2,7.743a1.392,1.392,0,0,0,1.75.482l4.957-2.349a1.39,1.39,0,0,0,.736-1.658l-2.669-8.836a31.982,31.982,0,0,0,6.779-6.336l8.606,3.081a1.39,1.39,0,0,0,1.693-.651L517.339,623A1.39,1.39,0,0,0,516.946,621.227Zm-42.155,4.234A20.489,20.489,0,1,1,499.425,610.2,20.49,20.49,0,0,1,474.791,625.46Z" transform="translate(-356.63 -508.311)" fill="#0a5fa5"/></g><rect width="327.782" height="218.059" transform="translate(416.364 252.087)" fill="none" stroke="#05286b" stroke-miterlimit="10" stroke-width="1"/><rect width="308.338" height="12.5" rx="4.243" transform="translate(431.642 64.584)" fill="#0a5fa5"/><rect width="158.336" height="6.945" rx="2.5" transform="translate(476.088 106.251)" fill="#0a5fa5"/><rect width="194.447" height="6.945" rx="2.482" transform="translate(476.088 120.141)" fill="#0a5fa5"/><rect width="194.447" height="6.945" rx="2.482" transform="translate(476.088 160.419)" fill="#0a5fa5"/><rect width="158.336" height="6.945" rx="2.5" transform="translate(476.088 147.919)" fill="#0a5fa5"/><rect width="194.447" height="6.945" rx="2.482" transform="translate(476.088 197.919)" fill="#0a5fa5"/><rect width="158.336" height="6.945" rx="2.5" transform="translate(476.088 186.808)" fill="#0a5fa5"/><rect width="373.616" height="18.241" rx="5.642" transform="translate(27.47 265.976)" fill="#0a5fa5"/><rect width="191.857" height="10.134" rx="3.324" transform="translate(81.325 317.056)" fill="#0a5fa5"/><rect width="235.614" height="10.134" rx="3.301" transform="translate(81.325 337.324)" fill="#0a5fa5"/><rect width="235.614" height="10.134" rx="3.301" transform="translate(81.325 396.099)" fill="#0a5fa5"/><rect width="191.857" height="10.134" rx="3.324" transform="translate(81.325 377.859)" fill="#0a5fa5"/><rect width="235.614" height="10.134" rx="3.301" transform="translate(81.325 450.822)" fill="#0a5fa5"/><rect width="191.857" height="10.134" rx="3.324" transform="translate(81.325 434.608)" fill="#0a5fa5"/><rect width="179" height="179" transform="translate(26 54)" fill="none" stroke="#05286b" stroke-miterlimit="10" stroke-width="3" stroke-dasharray="25 15"/><rect width="142" height="142" transform="translate(44 73)" fill="#0a5fa5"/><path d="M91.906,382.157,58,468.051H173.279L143.894,425.1l-15.258,15.257Z" transform="translate(0.026 -279.854)" fill="#fff"/><ellipse cx="14.584" cy="14.584" rx="14.584" ry="14.584" transform="translate(131.638 102.085)" fill="#fff"/></g></g><g transform="translate(888.75 112.289)"><g transform="translate(0 0)"><g transform="translate(0 0)"><g transform="translate(49.457 73.415)"><path d="M632.012,305.746,598.87,287.811l1.394-19.875,38.055,15.275Z" transform="translate(-598.87 -267.936)" fill="#efd9a9"/></g><path d="M663.549,730.383s-7.533,18.715-5.173,35.235,7.243,24.183,14.947,74.732c2.1,13.779,1.7,12.512,1.18,26.353,0,0,14.553,18.486,25.566,2.753l5.507-10.226s-5.507-7.867-4.72-39.333c.688-27.509.774-41.189.26-54.182a64.824,64.824,0,0,0-.761-7.781,41.109,41.109,0,0,1-.447-4.814,42.4,42.4,0,0,1,1.789-13.662,24.416,24.416,0,0,0-.029-14.288C698.5,715.273,663.549,730.383,663.549,730.383Z" transform="translate(-562.011 -291.355)" fill="#efd9a9"/><path d="M598.406,293.509,585.659,282.5s-30.679,7.08-38.546,41.692-4.72,81.025-3.147,88.1,7.867,35.4,7.867,49.559-.787,39.333-.787,39.333,74.732-1.573,91.251,2.36c0,0,11.013,1.573,14.16-1.573s-6.293-5.507-7.08-42.479,3.146-40.906,2.36-47.986c-.289-2.6-22.262-91.8-28.319-102.265,0,0-6.494-3.247-13.783-7.6A80.014,80.014,0,0,1,598.406,293.509Z" transform="translate(-537.28 -197.628)" fill="#336"/><path d="M585.2,295.5s-29.893,16.52-15.733,45.626,31.466,40.119,50.346,58.212S649.706,419,656.785,416.644s32.253-36.972,39.332-51.132,18.093-29.106,18.093-29.106-1.573-17.306-18.88-14.946c0,0-23.6,28.319-26.746,32.253s-13.373,14.16-19.666,11.8-20.453-22.026-24.386-30.679-7.867-24.386-7.867-24.386" transform="translate(-542.328 -200.402)" fill="#565682" stroke="#000" stroke-miterlimit="10" stroke-width="0.5"/><path d="M749.5,349.5" transform="translate(-581.55 -211.923)" fill="none" stroke="#000" stroke-miterlimit="10" stroke-width="1"/><path d="M627.5,678.766s11.8-33.039,22.813-43.266c0,0-10.226,18.88,0,43.266" transform="translate(-555.522 -272.941)" fill="none" stroke="#000" stroke-miterlimit="10" stroke-width="0.5"/><path d="M548.051,919.637s-8.952,3.292-8.952,8.8c0,4.647-1.12,23.3-1.47,29.009a3.362,3.362,0,0,0,1.182,2.854c5.89,4.689,30.93,23.761,64.582,15.3a3.845,3.845,0,0,0,2.868-3.7c.029-4.367-1.412-13.113-11.31-23.011,0,0-8.42-5.614-12.007-19.491a11.153,11.153,0,0,0-2.539-4.777,48.037,48.037,0,0,0-6.9-6.331C568.992,915.063,548.051,919.637,548.051,919.637Z" transform="translate(-536.346 -333.029)" fill="#b8b8f5"/><path d="M553.662,727.363s-14.909,25.761-17.269,50.934c0,0-1.573,7.866,1.573,20.453s-.787,29.106,4.72,47.986,5.507,30.679,4.72,34.613c-.482,2.409-.964,5.7-1.265,7.895-.12.873.94,1.577,1.578.969,3.786-3.6,11.854-8.8,23.68-10.831.607-.1,1.823-1.647,1.661-2.241a99.13,99.13,0,0,1-2.054-38.271c3.147-22.026,3.933-47.2,4.72-54.279.614-5.521-2.122-13.913.748-22.937a22.26,22.26,0,0,1,6.112-9.375c2.4-2.261,6.192-7.2,7.877-16.79C593.032,720.871,553.662,727.363,553.662,727.363Z" transform="translate(-536 -292.234)" fill="#efd9a9"/><path d="M671.729,935.2c6.293,11.8,79.452,6.293,88.1,3.933,7.188-1.96,14.619-7.232,12.155-14.454a8.549,8.549,0,0,0-5.487-5.308c-8.982-2.917-41-13.315-53.721-22.9a5.432,5.432,0,0,0-4.136-1.012c-7.215,1.157-28.306,4.634-31.64,6.27a.262.262,0,0,0-.136.162C676.282,903.726,667.895,928.016,671.729,935.2Z" transform="translate(-564.745 -328.39)" fill="#b8b8f5"/><path d="M646.7,210.879c3.266,12.992,3.106,20.7,1.924,26.494-.245,1.174-.518,2.332-.832,3.461-2.85,10.233-8.683,18.544-15.919,22.323a18.256,18.256,0,0,1-11.941,1.887c-5.651-1.042-10.228-2.273-14.075-4.336,0-.007,0-.007-.01,0-5.731-3.07-9.838-7.988-13.474-16.888l-.012-.037a146.977,146.977,0,0,1-6.185-20.395c-2.993-12.36-.832-23.555,4.22-31.843A31.016,31.016,0,0,1,603.6,179.385a44.2,44.2,0,0,1,9.448-.13.372.372,0,0,1,.083.015l2.014.546a.007.007,0,0,1,.009,0c.291.1.579.214.863.339,6.6,2.911,11.64,4.129,15.487,4.319.319.015.622.027.921.024l0,.008a45.024,45.024,0,0,1,9.63,12.481c.308.579-.8.111-.363.618C642.875,198.979,644.848,203.5,646.7,210.879Z" transform="translate(-546.414 -175.56)" fill="#efd9a9"/><path d="M554.055,559.074a.826.826,0,0,0-.226,1.029c2.559,5.495,5.745,71.739,2.03,83.809-3.7,12.029.787,36.186-2.36,46.412,0,0,48.772,12.586,55.066,10.227s3.933-29.893,3.933-30.679,6.908,21.94,13.373,23.6c12.9,3.31,49.346-2.148,57.425-5.507,0,0-7.08-77.092-11.8-88.891,0,0-9.618-32.22-16.216-36.956C655.281,562.117,562.5,552.889,554.055,559.074Z" transform="translate(-539.734 -256.18)" fill="#999"/><path d="M652.411,194.881c-1.027.958-3.749,1.609-7.312,2.055-.1.016-.207.024-.309.039-11.455,1.388-31.091.658-31.091.658-.978.011-.864,4.932-2.786,26.674-1.93,21.82,10.362,19.5,14.7,15.478,2.944-2.725,10.567-3.739,14.484-4.106a11.6,11.6,0,0,1,7.163,1.613,12.64,12.64,0,0,1,2.3,1.825,11.875,11.875,0,0,1,2.292,3.245c4.36,8.953-2.324,22.3-2.461,22.572-.007,0-.007,0-.021.015-4.237,6.109-10.688,7.571-17.5,6.705-8.778-1.113-18.131-6.119-24.057-10.059a11.811,11.811,0,0,1-2.263-1.952c0-.007,0-.007-.01,0a10.6,10.6,0,0,1-2.786-7.28c.1-5.481.426-15.622,1.539-26.941,1.837-18.763-11.412-16.522-12.454-13.546-.958,2.694.349,27.172.61,31.774a.165.165,0,0,1-.31.065c-.113-.228-.253-.514-.423-.848l-.012-.038c-2.261-4.64-8.682-18.8-9.853-31.742-.013-.169-.024-.338-.038-.515a44.457,44.457,0,0,1,2.628-18.946,35.887,35.887,0,0,1,3.524-7.278c2.17-4.057,7.04-5.878,12.1-6.614a56.524,56.524,0,0,1,13.017-.123c.365.033.718.079,1.075.14a.353.353,0,0,1,.087.013,14.565,14.565,0,0,1,2.093.521s.008,0,.01,0c.3.1.6.207.895.329,6.847,2.834,12.084,3.989,16.1,4.128.333.01.649.018.96.011l0,.008c8.1-.068,10.8-4.522,11.7-7.288a1.41,1.41,0,0,1,2.274-.477C656.589,183.109,656.478,191.111,652.411,194.881Z" transform="translate(-545.744 -174.61)"/><path d="M728.44,273.326" transform="translate(-577.057 -195.671)" fill="none" stroke="#faf9f8" stroke-miterlimit="10" stroke-width="0.44"/><g transform="translate(150.119 12.642)"><path d="M736.385,321.755a4.666,4.666,0,0,1-.052-3.139c.9-2.65,2.842-7.885,4.759-9.806,1.825-1.83,5.26-2.614,7.163-2.92a1.518,1.518,0,0,1,1.59.751c.49.92,2.006,1.973,6.671.32,7.109-2.519,16.777-8.021,16.777-8.021a4.482,4.482,0,0,1,5.433,7.052c-.937,1-1.007,1.281-3.539,2.2,0,0,5.436-2.465,7.424-1.63,1.591.667,4.121,2.874,2.9,5.954a4.749,4.749,0,0,0,.615,4.651c1.049,1.381,1.8,3.28.523,5.288a4.8,4.8,0,0,0-.4,4.5,3.763,3.763,0,0,1-.389,3.939,4.439,4.439,0,0,1-1.942,1.481c-2.485,1.011-9.654,3.912-12.568,4.945-3.555,1.259-17.289,8.055-23.365,4.28C743.015,338.517,738.031,326.148,736.385,321.755Z" transform="translate(-728.808 -213.645)" fill="#efd9a9"/><path d="M747.388,347.556l-3.933,3.933-13.072-23.268,4.749-.738Z" transform="translate(-727.591 -219.868)" fill="#faf9f8" stroke="#000" stroke-miterlimit="10" stroke-width="0.25"/><path d="M780.408,346.651c.153-.051,14.494,9.166,13.189-5.2l-13.517,5.323" transform="translate(-738.194 -222.849)" fill="#a3a3a2"/><path d="M839.518,266.306c-.1-.02-.2-.046-.293-.072-8.447-2.389-28.891-2.789-55.154,4.918l-15.465,4.327a.848.848,0,0,0-.507.385.867.867,0,0,0-.032.869.531.531,0,0,1-.2.7c-.994.563-3.589,2.014-6.634,3.453-5.2,2.463-11.714,4.9-13.828,2.852l-.006-.007a1.831,1.831,0,0,1-.29-.354.891.891,0,0,0-.879-.376,21.378,21.378,0,0,0-6.761,2.522c-.271.166-8.294,4.95-12.415-9.459a5.384,5.384,0,0,1,.727-4.6c.747-1.039,2.087-1.731,4.049-2.5,4.312-1.684,4.759-5.585,17.672-13.9.146-.1.3-.2.454-.29,10.709-6.828,43.188-36.892,48.926-60.592.238-1,.433-1.98.579-2.949,0,0,.872-6.8,23.559,27.552a.634.634,0,0,0,.43.264.551.551,0,0,0,.274-.039c1.8-.68,9.453-2.911,10.905-1.466,1.311,1.293,5.188,6.469,4.931,10.872-.218,3.689-2.332,3.717-6.762,7.079a.582.582,0,0,0-.225.388v.006a.548.548,0,0,0,.064.337c1.362,2.6,8.87,17.072,9.818,26.942C842.632,265.051,841.293,266.611,839.518,266.306Z" transform="translate(-726.834 -190.681)" fill="#faf9f8"/><path d="M773.514,299.838a.52.52,0,0,1-.2.694c-.993.57-3.587,2.019-6.63,3.459-5.2,2.46-11.713,4.892-13.827,2.851l0-.007-.486-.782,14.338-4.8,6.843-2.289A.866.866,0,0,0,773.514,299.838Z" transform="translate(-732.28 -213.783)" fill="#a3a3a2"/><path d="M761.255,295.612a16.635,16.635,0,0,1-.021,2.738c-5.2,2.46-11.713,4.892-13.827,2.851l0-.007a1.94,1.94,0,0,1-.294-.353.887.887,0,0,0-.876-.378,21.274,21.274,0,0,0-6.764,2.525c-.271.166-8.291,4.949-12.415-9.465a5.38,5.38,0,0,1,.731-4.6c.747-1.038,2.082-1.728,4.045-2.5,4.312-1.686,4.758-5.587,17.671-13.9l.277.105S759.973,277.819,761.255,295.612Z" transform="translate(-726.834 -208.142)" fill="#8b000f"/><path d="M859.058,266.306c-.059-.169-.117-.338-.177-.5-22.614-66.235-40.458-71.628-40.458-71.628.238-1,.433-1.98.579-2.949,0,0,.872-6.8,23.558,27.552a.634.634,0,0,0,.43.264.551.551,0,0,0,.274-.039c1.8-.68,9.453-2.911,10.905-1.466,1.311,1.293,5.188,6.469,4.932,10.872-.218,3.689-2.332,3.717-6.762,7.079a.58.58,0,0,0-.225.388v.006a.548.548,0,0,0,.064.337c1.363,2.6,8.87,17.072,9.818,26.942C862.172,265.051,860.834,266.611,859.058,266.306Z" transform="translate(-746.374 -190.681)" fill="#8b000f"/><path d="M859,242.648a.581.581,0,0,0-.225.388L849.653,226.2a.551.551,0,0,0,.274-.039c1.8-.68,9.453-2.911,10.905-1.466,1.311,1.293,5.188,6.469,4.932,10.872C865.546,239.258,863.432,239.286,859,242.648Z" transform="translate(-753.037 -197.836)" fill="#a3a3a2"/></g><path d="M869,200s21.388,8.556,19.555,33.61" transform="translate(-607.046 -180.027)" fill="none" stroke="#a3a3a2" stroke-linecap="round" stroke-linejoin="round" stroke-width="4"/><path d="M881,179s31.654,12.662,28.941,49.742" transform="translate(-609.606 -175.547)" fill="none" stroke="#a3a3a2" stroke-linecap="round" stroke-linejoin="round" stroke-width="4"/></g></g></g></g></svg>