<svg xmlns="http://www.w3.org/2000/svg" width="76.982" height="126.576" viewBox="0 0 76.982 126.576"><g transform="translate(-1528 -1342.424)"><g transform="translate(1462.851 1065.166)"><g transform="translate(65.149 277.258)"><path d="M131.361,420.586s6.988-21.652,11.939-29.344c4.971-7.725,31.7-48.431-3.8-67.25a43.734,43.734,0,0,0-40.735,0c-35.5,18.819-8.772,59.525-3.8,67.25,4.951,7.693,11.939,29.344,11.939,29.344" transform="translate(-80.64 -318.96)" fill="#ffdf00"/><path d="M96.566,379.227v13.989c0,4.765,4.126,8.629,9.217,8.629h4.838c5.091,0,9.217-3.863,9.217-8.629V379.227Z" transform="translate(-69.711 -277.601)" fill="#1a1818"/><line x2="23.272" transform="translate(26.855 109.265)" fill="#1a1818" stroke="#868483" stroke-miterlimit="10" stroke-width="0.977"/><line x2="23.272" transform="translate(26.855 114.354)" fill="#1a1818" stroke="#868483" stroke-miterlimit="10" stroke-width="0.977"/></g><path d="M222.447,515.547" transform="translate(-103.807 -114.045)" fill="#1a1818" stroke="#868483" stroke-miterlimit="10" stroke-width="1.617"/><path d="M222.447,516.93" transform="translate(-103.807 -113.096)" fill="#1a1818" stroke="#868483" stroke-miterlimit="10" stroke-width="1.771"/></g></g></svg>